<svg xmlns="http://www.w3.org/2000/svg" viewBox="0 0 180 180" fill="none">
  <defs>
    <linearGradient id="cappCup" x1="0%" y1="0%" x2="0%" y2="100%">
      <stop offset="0%" stop-color="#f5f0e6"/>
      <stop offset="100%" stop-color="#cfc4b0"/>
    </linearGradient>
    <linearGradient id="cappFoam" x1="0%" y1="0%" x2="0%" y2="100%">
      <stop offset="0%" stop-color="#fbeed4"/>
      <stop offset="100%" stop-color="#d8b88a"/>
    </linearGradient>
  </defs>
  <ellipse cx="90" cy="140" rx="44" ry="5" fill="#e8e0d0" stroke="rgba(0,0,0,0.15)" stroke-width="0.5"/>
  <ellipse cx="90" cy="142.5" rx="40" ry="3.5" fill="#cfc4b0"/>
  <path d="M48 88 L54 130 Q54 136 60 136 L120 136 Q126 136 126 130 L132 88 Z" fill="url(#cappCup)" stroke="rgba(0,0,0,0.12)" stroke-width="0.8"/>
  <ellipse cx="90" cy="89" rx="42" ry="6.5" fill="url(#cappFoam)"/>
  <ellipse cx="90" cy="88" rx="40" ry="5" fill="#fff5dc" opacity="0.55"/>
  <path d="M90 95 C 86 90, 80 90, 80 86 C 80 82, 84 80, 87 82 C 88.5 83, 90 85, 90 86 C 90 85, 91.5 83, 93 82 C 96 80, 100 82, 100 86 C 100 90, 94 90, 90 95 Z" fill="#9a6840" opacity="0.85"/>
  <path d="M126 100 Q146 100 146 114 Q146 128 126 128" stroke="rgba(0,0,0,0.18)" stroke-width="6.5" stroke-linecap="round" fill="none"/>
  <path d="M126 100 Q142 100 142 114 Q142 128 126 128" stroke="#cfc4b0" stroke-width="3.5" stroke-linecap="round" fill="none"/>
  <path d="M56 96 Q54 114 60 130" stroke="rgba(255,255,255,0.5)" stroke-width="2" stroke-linecap="round" fill="none"/>
  <path d="M122 96 Q124 116 118 132" stroke="rgba(0,0,0,0.12)" stroke-width="2" stroke-linecap="round" fill="none"/>
</svg>
