<svg xmlns="http://www.w3.org/2000/svg" viewBox="0 0 180 180" fill="none">
  <defs>
    <linearGradient id="latteGlass" x1="0%" y1="0%" x2="100%" y2="0%">
      <stop offset="0%" stop-color="rgba(255,255,255,0.18)"/>
      <stop offset="50%" stop-color="rgba(255,255,255,0.04)"/>
      <stop offset="100%" stop-color="rgba(0,0,0,0.18)"/>
    </linearGradient>
    <linearGradient id="latteEspresso" x1="0%" y1="0%" x2="0%" y2="100%">
      <stop offset="0%" stop-color="#5a3520"/>
      <stop offset="100%" stop-color="#2e1a0e"/>
    </linearGradient>
    <linearGradient id="latteMilk" x1="0%" y1="0%" x2="0%" y2="100%">
      <stop offset="0%" stop-color="#e8d4b8"/>
      <stop offset="100%" stop-color="#c8a883"/>
    </linearGradient>
    <linearGradient id="latteFoam" x1="0%" y1="0%" x2="0%" y2="100%">
      <stop offset="0%" stop-color="#fcf2dc"/>
      <stop offset="100%" stop-color="#e8d4b8"/>
    </linearGradient>
  </defs>
  <ellipse cx="90" cy="146" rx="32" ry="3.5" fill="#1a1410" opacity="0.6"/>
  <ellipse cx="90" cy="144" rx="28" ry="3" fill="#2a1e14"/>
  <path d="M70 60 L72 138 Q72 142 76 142 L104 142 Q108 142 108 138 L110 60 Z" fill="rgba(255,255,255,0.04)" stroke="rgba(255,255,255,0.18)" stroke-width="1"/>
  <path d="M72 92 L73 138 Q73 140 76 140 L104 140 Q107 140 107 138 L108 92 Z" fill="url(#latteEspresso)"/>
  <path d="M71 72 L72 92 L108 92 L109 72 Z" fill="url(#latteMilk)"/>
  <path d="M70.5 62 L71 72 L109 72 L109.5 62 Z" fill="url(#latteFoam)"/>
  <ellipse cx="80" cy="62" rx="6" ry="3" fill="#fff7e0" opacity="0.95"/>
  <ellipse cx="92" cy="60" rx="7" ry="3.5" fill="#fff7e0" opacity="0.95"/>
  <ellipse cx="103" cy="62" rx="5" ry="2.8" fill="#fff7e0" opacity="0.9"/>
  <path d="M75 76 Q73 100 75 130" stroke="rgba(255,255,255,0.25)" stroke-width="1.5" stroke-linecap="round" fill="none"/>
  <path d="M105 76 Q107 105 104 130" stroke="rgba(0,0,0,0.18)" stroke-width="1.2" stroke-linecap="round" fill="none"/>
  <path d="M70 60 L72 138 Q72 142 76 142 L104 142 Q108 142 108 138 L110 60 Z" fill="url(#latteGlass)" opacity="0.5"/>
</svg>
